<svg viewBox="0 0 273.42 35.52" xmlns="http://www.w3.org/2000/svg" xmlns:xlink="http://www.w3.org/1999/xlink"><linearGradient id="a" gradientUnits="userSpaceOnUse" x2="273.42" y1="17.76" y2="17.76"><stop offset="0" stop-color="#90cea1"/><stop offset=".56" stop-color="#3cbec9"/><stop offset="1" stop-color="#00b3e5"/></linearGradient><path d="m191.85 35.37h63.9a17.67 17.67 0 0 0 17.67-17.67 17.67 17.67 0 0 0 -17.67-17.7h-63.9a17.67 17.67 0 0 0 -17.67 17.7 17.67 17.67 0 0 0 17.67 17.67zm-181.75.05h7.8v-28.5h10.1v-6.92h-28v6.9h10.1zm28.1 0h7.8v-27.17h.1l8.95 27.15h6l9.25-27.15h.1v27.15h7.8v-35.4h-11.75l-8.2 23.1h-.1l-8.15-23.1h-11.8zm50.94-35.3h11.7a33.56 33.56 0 0 1 8.08 1 18.52 18.52 0 0 1 6.67 3.08 15.09 15.09 0 0 1 4.53 5.52 18.5 18.5 0 0 1 1.67 8.25 16.91 16.91 0 0 1 -1.62 7.58 16.3 16.3 0 0 1 -4.38 5.5 19.24 19.24 0 0 1 -6.35 3.37 24.53 24.53 0 0 1 -7.55 1.15h-12.75zm7.8 28.2h4a21.66 21.66 0 0 0 5-.55 10.58 10.58 0 0 0 4.06-1.77 8.73 8.73 0 0 0 2.68-3.35 11.9 11.9 0 0 0 1-5.08 9.87 9.87 0 0 0 -1-4.52 9.17 9.17 0 0 0 -2.63-3.18 11.61 11.61 0 0 0 -3.83-1.87 17.06 17.06 0 0 0 -4.68-.63h-4.6zm36.15-28.2h13.2a32.87 32.87 0 0 1 4.63.33 12.66 12.66 0 0 1 4.17 1.3 7.94 7.94 0 0 1 3 2.72 8.34 8.34 0 0 1 1.15 4.65 7.48 7.48 0 0 1 -1.67 5 9.13 9.13 0 0 1 -4.43 2.82v.06a10.28 10.28 0 0 1 3.18 1 8.51 8.51 0 0 1 2.45 1.85 7.79 7.79 0 0 1 1.57 2.62 9.16 9.16 0 0 1 .55 3.2 8.52 8.52 0 0 1 -1.2 4.68 9.32 9.32 0 0 1 -3.1 3 13.38 13.38 0 0 1 -4.27 1.65 22.5 22.5 0 0 1 -4.73.5h-14.5zm7.8 14.15h5.65a7.65 7.65 0 0 0 1.78-.2 4.78 4.78 0 0 0 1.57-.65 3.43 3.43 0 0 0 1.13-1.2 3.63 3.63 0 0 0 .42-1.8 3.3 3.3 0 0 0 -.44-1.82 3.42 3.42 0 0 0 -1.23-1.13 6.07 6.07 0 0 0 -1.77-.57 9.9 9.9 0 0 0 -1.85-.18h-5.3zm0 14.65h7a8.27 8.27 0 0 0 1.83-.2 4.67 4.67 0 0 0 1.67-.7 3.93 3.93 0 0 0 1.23-1.3 3.8 3.8 0 0 0 .47-1.95 3.16 3.16 0 0 0 -.62-2 4 4 0 0 0 -1.58-1.18 8.23 8.23 0 0 0 -2-.55 15.12 15.12 0 0 0 -2.05-.15h-5.9z" fill="url(#a)"/></svg>